<?xml version="1.0" encoding="utf-8"?>
<!-- Generator: Adobe Illustrator 24.2.1, SVG Export Plug-In . SVG Version: 6.00 Build 0)  -->
<svg version="1.1" id="Layer_1" xmlns="http://www.w3.org/2000/svg" xmlns:xlink="http://www.w3.org/1999/xlink" x="0px" y="0px"
	 viewBox="0 0 121.93 122.88" style="enable-background:new 0 0 121.93 122.88;" xml:space="preserve">
<style type="text/css">
	.st0{fill:#7F573C;}
	.st1{fill:#ED9E6D;stroke:#CC624E;stroke-width:0.216;stroke-miterlimit:2.6131;}
	.st2{fill:#FFAA5C;}
	.st3{fill:none;stroke:#BC574A;stroke-width:4.6057;stroke-linecap:round;stroke-linejoin:round;stroke-miterlimit:2.6131;}
	.st4{fill-rule:evenodd;clip-rule:evenodd;fill:#CC624E;}
	.st5{fill-rule:evenodd;clip-rule:evenodd;fill:#BC574A;}
</style>
<g>
	<path class="st0" d="M61.2,47.4c0.76-1.66,1.3-3.35,1.71-5.07c0.49-2.04,0.82-4.12,1.16-6.23c0.43-2.7,0.86-5.45,1.62-8.28
		c0.77-2.85,1.87-5.79,3.64-8.85c2.25-3.91,5.16-7.3,8.45-10.05c3.41-2.86,7.24-5.03,11.18-6.37c1.72-0.59,3.47-1.02,5.22-1.28
		c1.72-0.26,3.44-0.35,5.13-0.26c1.76,0.09,3.49,0.37,5.16,0.85c1.62,0.47,3.2,1.13,4.7,1.99c2.38,1.37,4.55,3.25,6.41,5.66
		c1.74,2.27,3.22,5.02,4.33,8.29c0.19,0.55,0.36,1.11,0.53,1.68c0.16,0.56,0.31,1.14,0.45,1.73c0.13,0.56,0.26,1.15,0.37,1.75
		c0.11,0.58,0.2,1.17,0.29,1.76c0.49,3.55,0.51,6.88,0.12,10.03c-0.4,3.15-1.21,6.13-2.38,8.99c-1.16,2.82-2.66,5.5-4.46,8.09
		c-1.79,2.59-3.87,5.08-6.19,7.53l-0.81,0.85c-1.62,1.71-3.2,3.38-4.62,5.17c-1.41,1.78-2.66,3.68-3.63,5.85
		c-1.03,2.32-1.75,4.6-2.31,6.86c-0.56,2.28-0.97,4.52-1.37,6.75c-0.75,4.16-1.49,8.29-3.17,12.59c-1.68,4.31-4.29,8.78-8.76,13.57
		c-1.44,1.54-2.94,2.93-4.5,4.18c-1.6,1.28-3.25,2.4-4.92,3.37c-1.72,0.99-3.48,1.81-5.25,2.46c-1.78,0.66-3.58,1.14-5.36,1.44
		c-0.69,0.12-1.37,0.21-2.03,0.28c-0.66,0.07-1.32,0.11-1.95,0.14c-3.21,0.11-6.1-0.36-8.66-1.31c-2.71-1-5.06-2.54-7.05-4.52
		c-0.64-0.63-1.24-1.31-1.8-2.03c-0.54-0.7-1.04-1.42-1.51-2.18c-0.07-0.04-0.13-0.07-0.2-0.12c-0.11-0.07-0.22-0.15-0.32-0.24
		c-5.4-4.93-8.47-9.45-10.39-13.87c-1.92-4.4-2.69-8.68-3.5-13.16l-0.01-0.07c-0.85-4.7-1.74-9.64-4.17-15.11
		c-0.97-2.17-2.22-4.07-3.63-5.85l-0.02-0.03c-1.41-1.77-2.99-3.44-4.6-5.15l-0.8-0.85c-2.32-2.46-4.4-4.95-6.19-7.54
		c-1.79-2.59-3.3-5.27-4.46-8.09c-1.17-2.85-1.99-5.83-2.38-8.99c-0.39-3.15-0.37-6.47,0.12-10.03c0.4-2.88,1.12-5.75,2.2-8.45
		c1-2.52,2.31-4.88,3.95-6.96c1.55-1.98,3.4-3.7,5.56-5.06c2-1.26,4.29-2.21,6.86-2.76c2.99-0.64,6.13-0.66,9.27-0.13
		c3.22,0.54,6.44,1.65,9.5,3.26c3,1.58,5.86,3.64,8.42,6.11c2.47,2.39,4.66,5.16,6.44,8.25c1.76,3.06,2.87,6,3.64,8.85
		c0.76,2.83,1.2,5.58,1.62,8.28c0.33,2.12,0.66,4.22,1.16,6.27c0.49,2.03,1.16,4.02,2.16,5.97L61.2,47.4L61.2,47.4L61.2,47.4z"/>
	<path class="st1" d="M47.3,65.24c1.21-1.24,2.47-2.55,3.73-3.91c1.25-1.36,2.5-2.77,3.7-4.21c0.69-0.84,1.37-1.69,2.02-2.55
		l0.02-0.03c0.57-0.75,1.12-1.52,1.64-2.3l-0.28-0.45c-0.16-0.27-0.31-0.52-0.43-0.73c-0.13-0.23-0.27-0.48-0.43-0.78
		c-0.14-0.26-0.27-0.51-0.39-0.74c-1.18-2.3-1.95-4.57-2.51-6.86c-0.56-2.26-0.92-4.54-1.28-6.85c-0.39-2.48-0.79-5-1.48-7.59
		c-0.69-2.57-1.66-5.19-3.2-7.87c-1.55-2.69-3.46-5.1-5.6-7.18c-2.22-2.15-4.7-3.94-7.29-5.31c-2.57-1.35-5.26-2.29-7.92-2.75
		c-2.61-0.42-5.18-0.41-7.6,0.1c-1.99,0.42-3.76,1.16-5.32,2.15c-1.67,1.06-3.11,2.4-4.33,3.95c-1.36,1.73-2.46,3.73-3.3,5.85
		c-0.91,2.31-1.52,4.78-1.87,7.26c-0.43,3.1-0.45,6-0.11,8.74c0.34,2.74,1.04,5.32,2.05,7.78c1.03,2.5,2.38,4.89,4.01,7.23
		c1.64,2.35,3.55,4.63,5.69,6.9l0.79,0.84c1.75,1.85,3.47,3.66,5.03,5.65c1.57,2,2.99,4.18,4.13,6.75
		c2.68,6.03,3.62,11.27,4.52,16.25l0,0c0.57,3.14,1.11,6.17,2.11,9.2c0.79,2.42,1.88,4.84,3.49,7.33c-0.09-0.64-0.18-1.29-0.24-1.96
		c-0.09-0.93-0.16-1.89-0.19-2.85c-0.1-2.87,0.08-5.81,0.52-8.71c0.44-2.89,1.14-5.77,2.09-8.51l0.7-1.89l0.38-0.93l1.92-3.94
		c0.67-1.2,1.39-2.34,2.16-3.43C45.18,67.59,46.21,66.36,47.3,65.24L47.3,65.24L47.3,65.24z"/>
	<path class="st2" d="M58.46,60.17c-1.25,1.51-2.55,2.98-3.86,4.4c-1.3,1.41-2.59,2.76-3.84,4.03c-1.51,1.55-2.86,3.35-4.03,5.33
		c-1.22,2.07-2.25,4.33-3.07,6.69c-0.85,2.46-1.48,5.04-1.88,7.65c-0.4,2.62-0.56,5.26-0.47,7.83c0.03,0.85,0.08,1.69,0.17,2.52
		c0.08,0.82,0.19,1.64,0.33,2.44c0.44,2.61,1.17,5.03,2.17,7.17c0.97,2.07,2.2,3.88,3.7,5.37c1.51,1.5,3.31,2.67,5.39,3.43
		l0.02,0.01c1.98,0.72,4.22,1.07,6.72,0.99c0.54-0.02,1.09-0.06,1.65-0.11c0.55-0.06,1.11-0.13,1.68-0.23
		c1.49-0.25,3.01-0.66,4.52-1.22c1.5-0.55,3-1.26,4.47-2.1c1.47-0.84,2.91-1.83,4.31-2.95c1.37-1.1,2.7-2.33,3.98-3.7
		c3.98-4.27,6.31-8.28,7.81-12.17c1.51-3.9,2.19-7.71,2.88-11.54c0.43-2.37,0.86-4.75,1.46-7.17c0.61-2.44,1.4-4.94,2.56-7.54
		c1.14-2.57,2.56-4.75,4.13-6.75c1.56-1.99,3.28-3.8,5.03-5.65l0.79-0.84c2.14-2.27,4.05-4.55,5.68-6.9
		c1.63-2.34,2.98-4.73,4.01-7.23c1.01-2.46,1.71-5.04,2.05-7.78c0.34-2.74,0.32-5.64-0.11-8.74c-0.07-0.51-0.16-1.03-0.25-1.54
		c-0.09-0.51-0.2-1.02-0.32-1.53c-0.12-0.52-0.25-1.02-0.39-1.49l-0.01-0.02c-0.14-0.47-0.29-0.96-0.46-1.46
		c-0.92-2.71-2.12-4.97-3.52-6.82c-1.48-1.95-3.2-3.45-5.07-4.53c-1.15-0.66-2.37-1.17-3.64-1.54c-1.31-0.38-2.67-0.59-4.04-0.66
		c-1.37-0.07-2.78,0.01-4.2,0.22c-1.44,0.22-2.89,0.58-4.33,1.07c-3.39,1.15-6.69,3.03-9.64,5.51c-2.85,2.39-5.37,5.34-7.33,8.73
		c-1.54,2.68-2.52,5.3-3.2,7.87c-0.69,2.59-1.09,5.11-1.48,7.59c-0.36,2.32-0.72,4.59-1.28,6.85c-0.56,2.28-1.33,4.56-2.51,6.86
		c-0.85,1.66-1.87,3.31-2.98,4.92C60.95,57.06,59.73,58.64,58.46,60.17L58.46,60.17L58.46,60.17z"/>
	<path class="st0" d="M89.8,27.68c-0.14,0.66-0.54,1.19-1.07,1.53c-0.53,0.34-1.18,0.47-1.84,0.33c-0.66-0.14-1.19-0.54-1.53-1.07
		c-0.34-0.52-0.47-1.18-0.33-1.84c0.14-0.64,0.33-1.29,0.55-1.93c0.23-0.64,0.5-1.29,0.82-1.95c0.32-0.64,0.68-1.29,1.09-1.94
		c0.42-0.65,0.88-1.3,1.4-1.94c0.42-0.52,1.02-0.83,1.64-0.9c0.62-0.07,1.27,0.1,1.79,0.52c0.52,0.42,0.83,1.02,0.9,1.64
		c0.07,0.62-0.1,1.27-0.52,1.79c-0.41,0.51-0.77,1.01-1.09,1.51c-0.32,0.5-0.59,0.98-0.83,1.45c-0.23,0.47-0.42,0.94-0.59,1.4
		C90.03,26.76,89.9,27.22,89.8,27.68L89.8,27.68L89.8,27.68z"/>
	<path class="st0" d="M79.53,46.26c-0.14,0.66-0.54,1.19-1.07,1.53c-0.53,0.34-1.18,0.47-1.84,0.33c-0.66-0.14-1.19-0.54-1.53-1.07
		c-0.34-0.53-0.47-1.18-0.33-1.84c0.14-0.64,0.33-1.29,0.55-1.93c0.23-0.64,0.5-1.29,0.82-1.95c0.32-0.64,0.68-1.29,1.09-1.94
		c0.42-0.65,0.88-1.3,1.4-1.94c0.42-0.52,1.02-0.83,1.64-0.9c0.62-0.07,1.27,0.1,1.79,0.52c0.52,0.42,0.83,1.02,0.9,1.64
		c0.07,0.62-0.1,1.27-0.52,1.79c-0.41,0.51-0.77,1.01-1.09,1.51c-0.32,0.5-0.59,0.98-0.83,1.46c-0.23,0.47-0.42,0.94-0.59,1.4
		C79.76,45.35,79.63,45.81,79.53,46.26L79.53,46.26L79.53,46.26z"/>
	<path class="st0" d="M67.35,68.45c-0.14,0.66-0.54,1.19-1.07,1.53c-0.53,0.34-1.18,0.47-1.84,0.33c-0.66-0.14-1.19-0.54-1.53-1.07
		c-0.34-0.52-0.47-1.18-0.33-1.84c0.14-0.64,0.33-1.29,0.55-1.93c0.23-0.64,0.5-1.29,0.82-1.95c0.32-0.64,0.68-1.29,1.09-1.94
		c0.42-0.65,0.88-1.3,1.4-1.94c0.42-0.52,1.02-0.83,1.64-0.9c0.62-0.07,1.27,0.1,1.79,0.52c0.52,0.42,0.83,1.02,0.9,1.64
		c0.07,0.62-0.1,1.27-0.52,1.79c-0.41,0.51-0.77,1.01-1.09,1.51c-0.32,0.5-0.59,0.98-0.83,1.46c-0.23,0.47-0.42,0.94-0.59,1.4
		C67.58,67.53,67.45,67.99,67.35,68.45L67.35,68.45L67.35,68.45z"/>
	<path class="st0" d="M55.71,87.97c-0.14,0.66-0.54,1.19-1.07,1.53c-0.52,0.34-1.18,0.47-1.84,0.33c-0.66-0.14-1.19-0.54-1.53-1.07
		c-0.34-0.52-0.47-1.18-0.33-1.84c0.14-0.64,0.33-1.29,0.55-1.93c0.22-0.64,0.5-1.29,0.82-1.95c0.32-0.64,0.68-1.29,1.09-1.94
		c0.42-0.65,0.88-1.3,1.4-1.94c0.42-0.52,1.02-0.83,1.64-0.9c0.62-0.07,1.27,0.1,1.79,0.52c0.52,0.42,0.83,1.02,0.9,1.64
		c0.07,0.62-0.1,1.27-0.52,1.79c-0.41,0.51-0.77,1.01-1.09,1.51c-0.32,0.5-0.59,0.98-0.83,1.46c-0.23,0.47-0.43,0.94-0.59,1.4
		C55.95,87.06,55.81,87.52,55.71,87.97L55.71,87.97L55.71,87.97z"/>
	<path class="st0" d="M105.05,35.9c-0.14,0.66-0.54,1.19-1.07,1.53c-0.52,0.34-1.18,0.47-1.84,0.33c-0.66-0.14-1.19-0.54-1.53-1.07
		c-0.34-0.52-0.47-1.18-0.33-1.84c0.14-0.64,0.33-1.29,0.55-1.93c0.22-0.64,0.5-1.29,0.82-1.95c0.32-0.64,0.68-1.29,1.09-1.94
		c0.42-0.65,0.88-1.3,1.4-1.94c0.42-0.52,1.02-0.83,1.64-0.9c0.62-0.07,1.27,0.1,1.79,0.52c0.52,0.42,0.83,1.02,0.9,1.64
		c0.07,0.62-0.1,1.27-0.52,1.79c-0.41,0.51-0.77,1.01-1.09,1.51c-0.32,0.5-0.59,0.98-0.83,1.46c-0.23,0.47-0.43,0.94-0.59,1.4
		C105.28,34.99,105.15,35.45,105.05,35.9L105.05,35.9L105.05,35.9z"/>
	<path class="st0" d="M94.77,54.48c-0.14,0.66-0.54,1.19-1.07,1.53c-0.52,0.34-1.18,0.47-1.84,0.33c-0.66-0.14-1.19-0.54-1.53-1.07
		c-0.34-0.52-0.47-1.18-0.33-1.84c0.14-0.64,0.33-1.29,0.55-1.93c0.22-0.64,0.5-1.29,0.82-1.95c0.32-0.64,0.68-1.29,1.09-1.94
		c0.42-0.65,0.88-1.3,1.4-1.94c0.42-0.52,1.02-0.83,1.64-0.9c0.62-0.07,1.27,0.1,1.79,0.52c0.52,0.42,0.83,1.02,0.9,1.64
		c0.07,0.62-0.1,1.27-0.52,1.79c-0.41,0.51-0.77,1.01-1.09,1.51c-0.32,0.5-0.6,0.98-0.83,1.46c-0.23,0.47-0.43,0.94-0.59,1.4
		C95.01,53.57,94.87,54.03,94.77,54.48L94.77,54.48L94.77,54.48z"/>
	<path class="st0" d="M82.59,76.67c-0.14,0.66-0.54,1.19-1.07,1.53c-0.52,0.34-1.18,0.47-1.84,0.33s-1.19-0.54-1.53-1.07
		c-0.34-0.52-0.47-1.18-0.33-1.84c0.14-0.64,0.33-1.29,0.55-1.93c0.22-0.64,0.5-1.29,0.82-1.95c0.32-0.64,0.68-1.29,1.09-1.94
		c0.42-0.65,0.88-1.3,1.4-1.94c0.42-0.52,1.02-0.83,1.64-0.9c0.62-0.07,1.27,0.1,1.79,0.52c0.52,0.42,0.83,1.02,0.9,1.64
		c0.07,0.62-0.1,1.27-0.52,1.79c-0.41,0.51-0.77,1.01-1.09,1.51c-0.32,0.5-0.59,0.98-0.83,1.45c-0.23,0.47-0.43,0.94-0.59,1.4
		C82.82,75.76,82.69,76.22,82.59,76.67L82.59,76.67L82.59,76.67z"/>
	<path class="st0" d="M70.96,96.2c-0.14,0.66-0.54,1.19-1.07,1.53c-0.52,0.34-1.18,0.47-1.84,0.33c-0.66-0.14-1.19-0.54-1.53-1.07
		c-0.34-0.52-0.47-1.18-0.33-1.84c0.14-0.64,0.33-1.29,0.55-1.93c0.22-0.64,0.5-1.29,0.82-1.95c0.32-0.64,0.68-1.29,1.09-1.94
		c0.42-0.65,0.88-1.3,1.4-1.94c0.42-0.52,1.02-0.83,1.64-0.9c0.62-0.07,1.27,0.1,1.79,0.52c0.52,0.42,0.83,1.02,0.9,1.64
		c0.07,0.62-0.1,1.27-0.52,1.79c-0.41,0.51-0.77,1.01-1.09,1.51c-0.32,0.5-0.59,0.98-0.83,1.46c-0.23,0.47-0.42,0.94-0.59,1.4
		C71.19,95.28,71.06,95.74,70.96,96.2L70.96,96.2L70.96,96.2z"/>
	<path class="st3" d="M21.58,12.74c2.65-1.07,5.78-0.51,9.9,1.69c6.03,3.23,12.81,12.5,14.12,19.16c1.49,7.63-1.81,13.56-7.98,17.71
		c-2.27,1.53-4.41,2.38-6.43,2.63c-11.12,1.34-17.37-13.66-17.31-23.19C13.92,24.32,14.61,15.54,21.58,12.74L21.58,12.74z"/>
	<path class="st4" d="M21.58,12.74c2.65-1.07,5.78-0.51,9.9,1.69c6.03,3.23,12.81,12.5,14.12,19.16c1.49,7.63-1.81,13.56-7.98,17.71
		c-2.27,1.53-4.41,2.38-6.43,2.63c-11.12,1.34-17.37-13.66-17.31-23.19C13.92,24.32,14.61,15.54,21.58,12.74L21.58,12.74z"/>
	<path class="st5" d="M41.34,54.52c1.66-0.6,3.37-0.59,5-0.19c1.74,0.42,3.39,1.31,4.72,2.32l2.53,1.92l-2.14,2.33
		c-2.12,2.31-4.19,4.78-6.06,7.43c-1.85,2.63-3.56,5.48-4.99,8.62l-2.79,6.12l-2.53-6.24c-1.15-2.84-1.02-5.27-0.9-7.64
		c0.02-0.32,0.03-0.64,0.04-0.89c0.09-2.25,0.31-4.92,1.16-7.34C36.37,58.13,38.15,55.69,41.34,54.52L41.34,54.52z M49.31,58.94
		c-4.36,4.75-8.54,10.22-11.54,16.8c-1.06-2.61-0.75-5-0.66-7.34c0.16-4.04,0.78-9.55,5.22-11.16
		C44.68,56.38,47.41,57.5,49.31,58.94L49.31,58.94z"/>
	<path class="st4" d="M42.32,57.24c2.36-0.86,5.09,0.26,6.99,1.7c-4.36,4.75-8.54,10.22-11.54,16.8c-1.06-2.61-0.75-5-0.66-7.34
		C37.26,64.36,37.88,58.86,42.32,57.24L42.32,57.24z"/>
</g>
</svg>
